# xmcd CD database file
#
# Track frame offsets:
#	150
#	9568
#	21160
#	33644
#	42394
#	52704
#	66457
#	77965
#	87774
#	98948
#	114775
#	127306
#	142031
#	150282
#	160067
#	172718
#	185022
#	195339
#
# Disc length: 2728 seconds
#
# Revision: 0
# Processed by: cddbd v1.5.2PL0 Copyright (c) Steve Scherf et al.
# Submitted via: CDex 1.70beta2
#
DISCID=e40aa612
DTITLE=Thomson, Heather - Cdn. - One More Huig
DYEAR=1900
DGENRE=Country
TTITLE0=Be My Lovin' Man
TTITLE1=Candy Coated Lies
TTITLE2=Here I Am
TTITLE3=Hooked On Hockey
TTITLE4=I'll Find Out
TTITLE5=Rocky Mountain Magic
TTITLE6=What I Feel For You
TTITLE7=Rendezvous Affair
TTITLE8=Blue Eyes
TTITLE9=Loser's Hall of Fame
TTITLE10=Spirit of Our Dreams
TTITLE11=Stolen Moments
TTITLE12=One More Hug
TTITLE13=I Thought I Heard You Wisper
TTITLE14=Stories and Lies
TTITLE15=The Blame Game
TTITLE16=The Other Woman
TTITLE17=Think That I'm In Love
EXTD=
EXTT0=
EXTT1=
EXTT2=
EXTT3=
EXTT4=
EXTT5=
EXTT6=
EXTT7=
EXTT8=
EXTT9=
EXTT10=
EXTT11=
EXTT12=
EXTT13=
EXTT14=
EXTT15=
EXTT16=
EXTT17=
PLAYORDER=
